<svg id="Instagram" xmlns="http://www.w3.org/2000/svg" width="26.571" height="26.571" viewBox="0 0 26.571 26.571">
  <path id="パス_3" data-name="パス 3" d="M13.286,2.362A40.737,40.737,0,0,1,18.6,2.51a6.847,6.847,0,0,1,2.51.443,5.184,5.184,0,0,1,2.51,2.51,6.847,6.847,0,0,1,.443,2.51c0,1.329.148,1.771.148,5.314a40.737,40.737,0,0,1-.148,5.314,6.847,6.847,0,0,1-.443,2.51,5.184,5.184,0,0,1-2.51,2.51,6.847,6.847,0,0,1-2.51.443c-1.329,0-1.771.148-5.314.148a40.737,40.737,0,0,1-5.314-.148,6.847,6.847,0,0,1-2.51-.443,5.184,5.184,0,0,1-2.51-2.51A6.847,6.847,0,0,1,2.51,18.6c0-1.329-.148-1.771-.148-5.314A40.737,40.737,0,0,1,2.51,7.971a6.847,6.847,0,0,1,.443-2.51A5.3,5.3,0,0,1,3.986,3.986,2.5,2.5,0,0,1,5.462,2.952a6.847,6.847,0,0,1,2.51-.443,40.737,40.737,0,0,1,5.314-.148m0-2.362A43.617,43.617,0,0,0,7.824.148a9.113,9.113,0,0,0-3.248.59A5.779,5.779,0,0,0,2.214,2.214,5.779,5.779,0,0,0,.738,4.576a6.726,6.726,0,0,0-.59,3.248A43.617,43.617,0,0,0,0,13.286a43.617,43.617,0,0,0,.148,5.462A9.113,9.113,0,0,0,.738,22a5.779,5.779,0,0,0,1.476,2.362,5.779,5.779,0,0,0,2.362,1.476,9.113,9.113,0,0,0,3.248.59,43.617,43.617,0,0,0,5.462.148,43.617,43.617,0,0,0,5.462-.148A9.113,9.113,0,0,0,22,25.833,6.193,6.193,0,0,0,25.833,22a9.113,9.113,0,0,0,.59-3.248c0-1.476.148-1.919.148-5.462a43.617,43.617,0,0,0-.148-5.462,9.113,9.113,0,0,0-.59-3.248,5.779,5.779,0,0,0-1.476-2.362A5.779,5.779,0,0,0,22,.738a9.113,9.113,0,0,0-3.248-.59A43.617,43.617,0,0,0,13.286,0m0,6.5a6.681,6.681,0,0,0-6.79,6.79,6.79,6.79,0,1,0,6.79-6.79m0,11.219a4.35,4.35,0,0,1-4.429-4.429,4.35,4.35,0,0,1,4.429-4.429,4.35,4.35,0,0,1,4.429,4.429,4.35,4.35,0,0,1-4.429,4.429M20.371,4.576A1.624,1.624,0,1,0,22,6.2a1.638,1.638,0,0,0-1.624-1.624" fill="#c6a146" fill-rule="evenodd"/>
</svg>
