<svg xmlns="http://www.w3.org/2000/svg" width="16.671" height="17" viewBox="0 0 16.671 17">
  <g id="グループ_6542" data-name="グループ 6542" transform="translate(-1415 -33)">
    <rect id="長方形_24164" data-name="長方形 24164" width="6.99" height="1.771" transform="translate(1421.48 40.232)" fill="#111"/>
    <rect id="長方形_24165" data-name="長方形 24165" width="1.613" height="0.817" transform="translate(1421.48 43.304)" fill="#111"/>
    <rect id="長方形_24166" data-name="長方形 24166" width="1.613" height="0.817" transform="translate(1426.857 43.304)" fill="#111"/>
    <rect id="長方形_24167" data-name="長方形 24167" width="1.613" height="0.817" transform="translate(1424.169 43.304)" fill="#111"/>
    <rect id="長方形_24168" data-name="長方形 24168" width="1.613" height="0.817" transform="translate(1421.48 44.998)" fill="#111"/>
    <rect id="長方形_24169" data-name="長方形 24169" width="1.613" height="0.817" transform="translate(1426.857 44.998)" fill="#111"/>
    <rect id="長方形_24170" data-name="長方形 24170" width="1.613" height="0.817" transform="translate(1424.169 44.998)" fill="#111"/>
    <rect id="長方形_24171" data-name="長方形 24171" width="1.613" height="0.817" transform="translate(1421.48 46.692)" fill="#111"/>
    <rect id="長方形_24172" data-name="長方形 24172" width="1.613" height="0.817" transform="translate(1426.857 46.692)" fill="#111"/>
    <rect id="長方形_24173" data-name="長方形 24173" width="1.613" height="0.817" transform="translate(1424.169 46.692)" fill="#111"/>
    <path id="パス_12659" data-name="パス 12659" d="M18.712,3.286H18.5V0H11.364V3.286H7.5A2.548,2.548,0,0,0,4.952,5.832v8.623A2.548,2.548,0,0,0,7.5,17H18.712a2.914,2.914,0,0,0,2.911-2.911V6.2A2.914,2.914,0,0,0,18.712,3.286ZM12.123.759h5.613V5.313H12.123ZM9.25,15.735H7.5a1.28,1.28,0,0,1-1.281-1.281V5.832A1.28,1.28,0,0,1,7.5,4.551H9.25V15.735Zm11.108-1.646a1.646,1.646,0,0,1-1.646,1.646H10V4.551h1.361V6.072H18.5V4.551h.216A1.646,1.646,0,0,1,20.358,6.2Z" transform="translate(1410.048 33)" fill="#111"/>
    <rect id="長方形_24174" data-name="長方形 24174" width="3.917" height="0.506" transform="translate(1423.057 34.708)" fill="#111"/>
    <rect id="長方形_24175" data-name="長方形 24175" width="2.336" height="0.506" transform="translate(1423.057 36.099)" fill="#111"/>
  </g>
</svg>
