<svg xmlns="http://www.w3.org/2000/svg" width="32" height="31.232" viewBox="0 0 32 31.232">
  <g id="花アイコン4" transform="translate(0 -6.144)">
    <path id="パス_12660" data-name="パス 12660" d="M32,20.01a8.2,8.2,0,0,0-8.2-8.2h-.009a8.188,8.188,0,0,0-15.582,0H8.2A8.2,8.2,0,0,0,3.386,26.642,8.189,8.189,0,0,0,16,35.8a8.191,8.191,0,0,0,12.613-9.157A8.212,8.212,0,0,0,32,20.01Zm-5.332,5.184-.932.514.452.964a5.9,5.9,0,0,1,.556,2.5,5.962,5.962,0,0,1-.623,2.652,5.924,5.924,0,0,1-9.344,1.679L16,32.78l-.777.726a5.924,5.924,0,0,1-9.411-6.835l.452-.963-.932-.514A5.927,5.927,0,0,1,8.2,14.082a5.868,5.868,0,0,1,.727.045l1.056.132.2-1.045a5.926,5.926,0,0,1,11.634,0l.2,1.045,1.056-.132a5.85,5.85,0,0,1,.726-.045,5.944,5.944,0,0,1,3.45,1.11,5.882,5.882,0,0,1,2.185,2.986,5.912,5.912,0,0,1-2.767,7.016Z" transform="translate(0 0)" fill="#c6a146"/>
    <path id="パス_12661" data-name="パス 12661" d="M168.449,176.3a4.671,4.671,0,1,0,4.671,4.671A4.671,4.671,0,0,0,168.449,176.3Z" transform="translate(-152.449 -158.344)" fill="#c6a146"/>
  </g>
</svg>
