<svg xmlns="http://www.w3.org/2000/svg" width="23.536" height="24" viewBox="0 0 23.536 24">
  <g id="グループ_6541" data-name="グループ 6541" transform="translate(231 -2775)">
    <g id="FAXのアイコン3_1_" data-name="FAXのアイコン3 (1)" transform="translate(-235.952 2775)">
      <rect id="長方形_24164" data-name="長方形 24164" width="9.868" height="2.5" transform="translate(14.101 10.21)" fill="#fff"/>
      <rect id="長方形_24165" data-name="長方形 24165" width="2.278" height="1.153" transform="translate(14.101 14.547)" fill="#fff"/>
      <rect id="長方形_24166" data-name="長方形 24166" width="2.277" height="1.153" transform="translate(21.692 14.547)" fill="#fff"/>
      <rect id="長方形_24167" data-name="長方形 24167" width="2.278" height="1.153" transform="translate(17.896 14.547)" fill="#fff"/>
      <rect id="長方形_24168" data-name="長方形 24168" width="2.278" height="1.153" transform="translate(14.101 16.939)" fill="#fff"/>
      <rect id="長方形_24169" data-name="長方形 24169" width="2.277" height="1.153" transform="translate(21.692 16.939)" fill="#fff"/>
      <rect id="長方形_24170" data-name="長方形 24170" width="2.278" height="1.153" transform="translate(17.896 16.939)" fill="#fff"/>
      <rect id="長方形_24171" data-name="長方形 24171" width="2.278" height="1.154" transform="translate(14.101 19.329)" fill="#fff"/>
      <rect id="長方形_24172" data-name="長方形 24172" width="2.277" height="1.154" transform="translate(21.692 19.329)" fill="#fff"/>
      <rect id="長方形_24173" data-name="長方形 24173" width="2.278" height="1.154" transform="translate(17.896 19.329)" fill="#fff"/>
      <path id="パス_12659" data-name="パス 12659" d="M24.378,4.639h-.306V0H14V4.639H8.546A3.6,3.6,0,0,0,4.952,8.233V20.406A3.6,3.6,0,0,0,8.546,24H24.378a4.115,4.115,0,0,0,4.11-4.11V8.749A4.115,4.115,0,0,0,24.378,4.639Zm-9.3-3.568H23V7.5H15.076ZM11.02,22.214H8.546a1.807,1.807,0,0,1-1.808-1.808V8.233A1.807,1.807,0,0,1,8.546,6.425H11.02V22.214ZM26.7,19.89a2.324,2.324,0,0,1-2.324,2.324h-12.3V6.425H14V8.572H24.072V6.425h.306A2.324,2.324,0,0,1,26.7,8.749V19.89Z" fill="#fff"/>
      <rect id="長方形_24174" data-name="長方形 24174" width="5.53" height="0.714" transform="translate(16.326 2.411)" fill="#fff"/>
      <rect id="長方形_24175" data-name="長方形 24175" width="3.297" height="0.714" transform="translate(16.326 4.375)" fill="#fff"/>
    </g>
  </g>
</svg>
